<?xml version="1.0" encoding="UTF-8" standalone="no"?>
<!-- Creator: CorelDRAW 2018 (64-Bit) -->

<svg
   xmlns:dc="http://purl.org/dc/elements/1.1/"
   xmlns:cc="http://creativecommons.org/ns#"
   xmlns:rdf="http://www.w3.org/1999/02/22-rdf-syntax-ns#"
   xmlns:svg="http://www.w3.org/2000/svg"
   xmlns="http://www.w3.org/2000/svg"
   xmlns:sodipodi="http://sodipodi.sourceforge.net/DTD/sodipodi-0.dtd"
   xmlns:inkscape="http://www.inkscape.org/namespaces/inkscape"
   xml:space="preserve"
   width="74.38015mm"
   height="35.545422mm"
   version="1.1"
   style="clip-rule:evenodd;fill-rule:evenodd;image-rendering:optimizeQuality;shape-rendering:geometricPrecision;text-rendering:geometricPrecision"
   viewBox="0 0 7438.0151 3554.5422"
   id="svg837"
   sodipodi:docname="logo_fzj.svg"
   inkscape:version="0.92.3 (2405546, 2018-03-11)"
   inkscape:export-filename="A:\rtlive-dash-de\assets\logo_fzj.png"
   inkscape:export-xdpi="285.82626"
   inkscape:export-ydpi="285.82626"><metadata
   id="metadata841"><rdf:RDF><cc:Work
       rdf:about=""><dc:format>image/svg+xml</dc:format><dc:type
         rdf:resource="http://purl.org/dc/dcmitype/StillImage" /><dc:title></dc:title></cc:Work></rdf:RDF></metadata><sodipodi:namedview
   pagecolor="#c8c8c8"
   bordercolor="#666666"
   borderopacity="1"
   objecttolerance="10"
   gridtolerance="10"
   guidetolerance="10"
   inkscape:pageopacity="0"
   inkscape:pageshadow="2"
   inkscape:window-width="2520"
   inkscape:window-height="1481"
   id="namedview839"
   showgrid="false"
   fit-margin-top="0"
   fit-margin-left="0"
   fit-margin-right="0"
   fit-margin-bottom="0"
   inkscape:zoom="4.7104801"
   inkscape:cx="105.04896"
   inkscape:cy="97.921619"
   inkscape:window-x="8629"
   inkscape:window-y="355"
   inkscape:window-maximized="1"
   inkscape:current-layer="svg837" />
 <defs
   id="defs831">
  <style
   type="text/css"
   id="style829">
   <![CDATA[
    .fil0 {fill:#FEFEFE;fill-rule:nonzero}
   ]]>
  </style>
 </defs>
 <g
   id="Layer_x0020_1"
   transform="translate(968.10457,987.70374)">
  <metadata
   id="CorelCorpID_0Corel-Layer" />
  <path
   class="fil0"
   d="m 4359.42,1367.06 h -78.81 v -4.04 c 0,-26.64 16.79,-42.69 39.4,-42.69 22.61,0 39.41,15.68 39.41,42.32 z M 5499.81,980.32 V 299.17 c -1.52,-16.61 -15.68,-29.82 -32.64,-29.82 h -87.87 c -17.96,0 -32.78,14.82 -32.78,32.8 V 566.73 H 5095.66 V 302.15 c 0,-17.98 -14.81,-32.8 -32.77,-32.8 h -87.88 c -17.95,0 -32.77,14.82 -32.77,32.8 v 675.18 c 0,18.05 14.82,32.87 32.77,32.87 h 87.88 c 17.96,0 32.77,-14.82 32.77,-32.87 V 710.67 h 250.86 v 266.66 c 0,18.05 14.82,32.87 32.78,32.87 h 87.87 c 16.96,0 31.12,-13.21 32.64,-29.88 z m -1179.8,306.42 c -43.81,0 -78.81,32.11 -78.81,83.2 v 23.74 c 0,51.08 35,82.86 79.16,82.86 26.99,0 58.78,-13.17 71.94,-48.55 0.67,-1.83 1.79,-4.04 1.79,-5.85 0,-3.66 -2.57,-6.21 -5.85,-6.21 h -23.71 c -5.11,0 -7.3,3.66 -8.43,5.1 -9.84,19.36 -23.35,22.3 -35.74,22.3 -22.61,0 -39.75,-17.54 -39.75,-43.45 v -5.1 h 108.37 c 4.76,0 8.4,-4.04 8.4,-8.78 v -16.78 c 0,-48.89 -34.29,-82.48 -77.37,-82.48 z M 4071.41,977.33 V 302.15 c 0,-17.98 -14.82,-32.8 -32.81,-32.8 h -87.84 c -17.99,0 -32.77,14.82 -32.77,32.8 v 675.18 c 0,18.05 14.78,32.87 32.77,32.87 h 87.84 c 17.99,0 32.81,-14.82 32.81,-32.87 z m 107.28,313.06 h -120.44 c -4.76,0 -8.75,4 -8.75,8.76 v 17.15 c 0,4.76 3.99,8.41 8.75,8.41 h 82.9 l -85.09,108.77 c -4.34,5.08 -6.56,7.64 -6.56,16.04 v 14.96 c 0,4.74 3.99,8.41 8.75,8.41 h 120.44 c 4.76,0 8.39,-3.67 8.39,-8.41 v -16.78 c 0,-4.76 -3.63,-8.75 -8.39,-8.75 h -84.25 l 87.21,-108.04 c 4.34,-5.14 5.43,-8.75 5.43,-14.24 v -17.52 c 0,-4.76 -3.63,-8.76 -8.39,-8.76 z m -288.75,48.17 c 0,-15.33 13.83,-20.05 29.56,-20.05 24.8,0 30.98,12.4 34.65,22.6 1.44,3.65 2.54,5.47 6.52,5.47 h 23.04 c 3.31,0 6.21,-2.17 6.21,-6.2 0,-1.82 -0.36,-3.66 -0.71,-4.72 -5.5,-21.56 -23,-48.92 -68.26,-48.92 -36.13,0 -69,15.67 -69,53.64 0,74.11 103.64,43.45 103.64,81.41 0,16.77 -12.73,23.36 -33.55,23.36 -26.24,0 -34.32,-14.99 -37.22,-24.46 -1.09,-3.65 -2.54,-5.86 -6.59,-5.86 h -22.62 c -3.66,0 -6.2,2.58 -6.56,5.86 -0.39,1.82 0,3.99 0.36,5.1 4.33,24.83 27.37,50.75 72.28,50.75 37.96,0 71.51,-14.23 71.51,-55.51 0,-72.96 -103.26,-42.68 -103.26,-82.47 z m -389.65,-51.82 c -25.57,0 -40.52,10.57 -50.03,24.81 v -12.4 c 0,-4.76 -3.99,-8.76 -8.75,-8.76 h -22.25 c -4.76,0 -8.41,4 -8.41,8.76 v 165.33 c 0,4.74 3.65,8.41 8.41,8.41 h 22.25 c 4.76,0 8.75,-3.67 8.75,-8.41 v -98.91 c 0,-29.19 16.06,-45.24 38.73,-45.24 22.6,0 38.65,16.05 38.65,45.24 v 98.91 c 0,4.74 3.67,8.41 8.39,8.41 h 22.26 c 4.77,0 8.75,-3.67 8.75,-8.41 v -94.54 c 0,-49.61 -21.83,-83.2 -66.75,-83.2 z m 227.51,232.48 h -28.85 c -24.84,0 -33.59,-9.85 -33.59,-25.54 0,-16.08 8.75,-26.28 33.59,-26.28 h 28.85 c 25.16,0 34.33,10.2 34.33,26.28 0,15.69 -9.17,25.54 -34.33,25.54 z m -19.01,-201.82 h 9.84 c 21.91,0 34.33,13.51 34.33,32.11 -0.36,18.99 -13.09,31.77 -34.33,31.77 h -9.84 c -21.52,0 -34.33,-12.78 -34.33,-31.77 0,-18.6 12.81,-32.11 34.33,-32.11 z m 26.32,120.06 h -47.14 c -12.41,0 -17.85,-3.65 -17.85,-12.78 0,-8.37 5.86,-13.11 14.61,-13.11 h 35.42 c 40.85,0 69.32,-21.93 69.32,-62.06 v -74.82 c 0,-4.73 -3.67,-8.38 -8.4,-8.38 h -18.27 c -5.08,0 -8.75,3.65 -8.75,8.38 v 23.73 c -10.94,-8.03 -24.45,-11.68 -37.22,-11.68 h -9.14 c -41.2,0 -69.67,24.08 -69.67,62.77 0,19.36 7.3,33.59 23.35,44.54 -17.14,4.01 -24.8,15.68 -24.8,29.9 0,12.41 5.44,22.65 16.76,27.74 -16.05,8.02 -24.83,22.65 -24.83,41.99 0,30.64 22.61,55.81 64.24,55.81 h 42.37 c 40.85,0 63.88,-24.8 63.88,-55.81 0,-31.03 -23.03,-56.22 -63.88,-56.22 z m 1417.7,-147.07 h -22.22 c -4.76,0 -8.43,4 -8.43,8.76 v 98.91 c 0,29.2 -14.61,45.27 -37.19,45.27 -22.33,0 -35.84,-16.07 -35.84,-45.27 v -98.91 c 0,-4.76 -3.98,-8.76 -8.75,-8.76 h -22.26 c -4.76,0 -8.39,4 -8.39,8.76 v 94.53 c 0,51.08 20.81,82.86 63.85,82.86 26.32,0 39.44,-10.24 48.58,-23.36 v 11.3 c 0,4.74 3.67,8.41 8.43,8.41 h 22.22 c 4.77,0 8.79,-3.67 8.79,-8.41 v -165.33 c 0,-4.76 -4.02,-8.76 -8.79,-8.76 z m -601.27,-3.65 c -25.58,0 -40.54,10.57 -50.02,24.81 v -12.4 c 0,-4.76 -4.03,-8.76 -8.75,-8.76 h -22.26 c -4.77,0 -8.44,4 -8.44,8.76 v 165.33 c 0,4.74 3.67,8.41 8.44,8.41 h 22.26 c 4.72,0 8.75,-3.67 8.75,-8.41 v -98.91 c 0,-29.19 16.05,-45.24 38.62,-45.24 22.69,0 38.74,16.05 38.74,45.24 v 98.91 c 0,4.74 3.63,8.41 8.4,8.41 h 22.26 c 4.76,0 8.74,-3.67 8.74,-8.41 v -94.54 c 0,-49.61 -21.9,-83.2 -66.74,-83.2 z M 3780.37,977.33 v -78.27 c 0,-17.97 -14.82,-32.8 -32.81,-32.8 H 3466.04 V 302.15 c 0,-17.98 -14.77,-32.8 -32.8,-32.8 h -87.8 c -18.03,0 -32.84,14.82 -32.84,32.8 v 675.18 c 0,18.05 14.81,32.87 32.84,32.87 h 402.12 c 17.99,0 32.81,-14.82 32.81,-32.87 z m 1653.57,309.41 c -25.15,0 -44.17,10.57 -56.55,29.56 -11.64,-20.81 -31.36,-29.56 -53.62,-29.56 -24.87,0 -38.7,11.3 -47.48,24.46 v -12.05 c 0,-4.76 -3.99,-8.76 -8.75,-8.76 h -22.23 c -4.76,0 -8.43,4 -8.43,8.76 v 165.33 c 0,4.74 3.67,8.41 8.43,8.41 h 22.23 c 4.76,0 8.75,-3.67 8.75,-8.41 v -93.06 c 0,-29.56 5.85,-51.09 36.86,-51.09 28.47,0 34.68,17.88 34.68,51.09 v 93.06 c 0,4.74 3.63,8.41 8.4,8.41 h 22.61 c 4.41,0 8.39,-3.67 8.39,-8.41 v -93.06 c 0,-31.39 7.31,-51.09 36.87,-51.09 29.56,0 34.64,19.7 34.64,51.09 v 93.06 c 0,4.74 3.67,8.41 8.43,8.41 h 22.23 c 4.76,0 8.78,-3.67 8.78,-8.41 v -89.4 c 0,-52.58 -10.55,-88.34 -64.24,-88.34 z m -656.83,3.65 h -36.87 v -38.69 c 0,-4.74 -3.63,-8.75 -8.4,-8.75 h -21.52 c -4.72,0 -8.39,4.01 -8.39,8.75 v 16.05 c 0,18.61 -7.3,22.64 -25.15,22.64 -4.73,0 -8.4,4 -8.4,8.76 v 17.52 c 0,4.73 3.67,8.38 8.4,8.38 h 24.8 v 89.44 c 0,37.58 12.77,58.4 56.58,58.4 h 18.95 c 4.76,0 8.74,-3.67 8.74,-8.41 v -18.61 c 0,-4.75 -3.98,-8.41 -8.74,-8.41 h -12.39 c -21.94,0 -24.48,-7.65 -24.48,-28.46 v -83.95 h 36.87 c 4.76,0 8.74,-3.65 8.74,-8.38 v -17.52 c 0,-4.76 -3.98,-8.76 -8.74,-8.76 z m 3.42,-544.79 h -109.05 c -21.16,0 -25.4,16.94 -27.48,32.81 -5.32,50.8 -43.42,98.41 -120.65,98.41 -77.29,0 -139.7,-57.13 -139.7,-166.15 V 570.98 c 0,-109.01 62.41,-168.29 139.7,-168.29 77.23,0 112.15,51.87 120.65,102.68 3.14,21.14 14.82,28.57 26.46,28.57 h 107.92 c 15.87,0 24.37,-10.6 23.28,-26.46 -8.47,-128.06 -108.97,-248.72 -278.31,-248.72 -169.37,0 -293.19,124.89 -293.19,310.09 v 141.82 c 0,185.22 123.82,310.07 293.19,310.07 169.34,0 270.9,-124.85 280.43,-249.75 1.05,-11.64 -8.44,-25.39 -23.25,-25.39 z m 162.03,544.79 h -4.76 c -23.71,0 -39.41,12.41 -48.51,27.36 v -18.6 c 0,-4.76 -3.67,-8.76 -8.43,-8.76 h -20.46 c -4.73,0 -8.4,4 -8.4,8.76 v 165.33 c 0,4.74 3.67,8.41 8.4,8.41 h 21.9 c 4.77,0 8.79,-3.67 8.79,-8.41 v -82.49 c 0,-34.31 15.7,-52.57 46.35,-52.57 h 5.12 c 4.73,0 8.75,-3.65 8.75,-8.36 v -21.91 c 0,-4.76 -4.02,-8.76 -8.75,-8.76 z M 3105.48,269.35 h -87.85 c -17.99,0 -32.8,14.82 -32.8,32.8 v 419.1 c 0,108.99 -52.92,155.57 -128.05,155.57 -75.14,0 -125.95,-46.58 -125.95,-155.57 v -419.1 c 0,-17.98 -14.81,-32.8 -32.8,-32.8 h -87.84 c -17.99,0 -32.83,14.82 -32.83,32.8 v 419.1 c 0,185.18 112.2,299.49 279.42,299.49 167.21,0 281.5,-114.31 281.5,-299.49 v -419.1 c 0,-17.98 -14.82,-32.8 -32.8,-32.8 z m -967.1,948.05 h -142.32 c -4.74,0 -8.39,4.02 -8.39,8.74 v 238.34 c 0,4.74 3.65,8.41 8.39,8.41 h 22.24 c 4.77,0 8.78,-3.67 8.78,-8.41 v -93.44 h 87.95 c 4.75,0 8.76,-3.65 8.76,-8.39 v -19.71 c 0,-4.73 -4.01,-8.76 -8.76,-8.76 h -87.95 v -79.93 h 111.3 c 4.76,0 8.78,-3.64 8.78,-8.41 v -19.7 c 0,-4.72 -4.02,-8.74 -8.78,-8.74 z m 159.92,180.66 c 0,29.2 -16.42,45.27 -39.41,45.27 -22.26,0 -39.06,-16.07 -39.06,-45.27 v -32.49 c 0,-29.19 16.8,-45.24 39.06,-45.24 22.99,0 39.41,16.05 39.41,45.24 z m -39.41,-111.32 c -43.81,0 -78.48,32.11 -78.48,83.2 v 23.74 c 0,51.08 34.67,82.86 78.48,82.86 44.16,0 78.83,-31.78 78.83,-82.86 v -23.74 c 0,-51.09 -34.67,-83.2 -78.83,-83.2 z M 2413.9,302.15 c 0,-17.98 -14.82,-32.8 -32.83,-32.8 h -87.82 c -18.01,0 -32.81,14.82 -32.81,32.8 v 478.37 c 0,66.66 -51.86,96.3 -89.96,96.3 -38.1,0 -88.9,-29.64 -88.9,-96.3 v -9.53 c 0,-17.98 -14.81,-32.82 -32.81,-32.82 h -84.67 c -17.98,0 -32.82,14.84 -32.82,32.82 v 7.42 c 0,153.45 118.55,242.33 239.2,242.33 122.77,0 243.42,-88.88 243.42,-242.33 z m -1366.59,541.6 c -156.7,405.69 -531.36,557.95 -872.99,499.33 78.33,81.15 174.94,147.09 287.13,190.43 412.01,159.23 875.07,-45.75 1034.27,-457.78 121.22,-313.74 31.12,-656.96 -200.63,-873.21 z M 2974.26,204.79 c 45.5,0 76.19,-30.69 76.19,-76.21 0,-45.5 -30.69,-76.2 -76.19,-76.2 -45.52,0 -76.22,30.7 -76.22,76.2 0,45.52 30.7,76.21 76.22,76.21 z M 574.02,668.43 835.3,-7.79 C 510.7,-42.91 189.99,124.84 37.8,422.85 c -0.48,1.45 -0.63,2.92 -1.2,4.37 L 25.34,456.41 C -53.7,660.98 66.93,812.11 183.91,857.31 300.69,902.44 495,872.95 574.02,668.43 Z M 2752.01,204.79 c 45.48,0 76.17,-30.69 76.17,-76.21 0,-45.5 -30.69,-76.2 -76.17,-76.2 -45.53,0 -76.22,30.7 -76.22,76.2 0,45.52 30.69,76.21 76.22,76.21 z m 69.52,1115.54 c 21.57,0 33.21,13.13 37.97,32.1 0.34,2.57 2.55,5.49 6.2,5.49 h 25.22 c 3.24,0 5.44,-2.55 5.44,-5.86 0,-1.44 0,-2.93 -0.69,-4.71 -7.71,-33.6 -34.31,-60.61 -74.14,-60.61 -43.4,0 -77.72,32.11 -77.72,83.2 v 23.74 c 0,51.08 34.32,82.86 77.72,82.86 45.61,0 69.73,-33.6 74.14,-58.77 0.35,-1.84 0.69,-4.39 0.69,-5.83 0,-3.31 -2.55,-5.86 -6.2,-5.86 h -25.15 c -2.96,0 -5.17,1.45 -5.86,5.1 -4.75,21.52 -17.5,32.15 -37.62,32.15 -22.6,0 -39.39,-16.07 -39.39,-45.27 v -32.49 c 0,-29.19 16.79,-45.24 39.39,-45.24 z m 504.57,-29.94 h -22.25 c -4.76,0 -8.41,4 -8.41,8.76 v 98.91 c 0,29.2 -14.61,45.27 -37.21,45.27 -22.25,0 -35.76,-16.07 -35.76,-45.27 v -98.91 c 0,-4.76 -3.99,-8.76 -8.75,-8.76 h -22.25 c -4.76,0 -8.41,4 -8.41,8.76 v 94.53 c 0,51.08 20.81,82.86 63.87,82.86 26.26,0 39.42,-10.24 48.51,-23.36 v 11.3 c 0,4.74 3.65,8.41 8.41,8.41 h 22.25 c 4.76,0 8.75,-3.67 8.75,-8.41 v -165.33 c 0,-4.76 -3.99,-8.76 -8.75,-8.76 z m -281.12,-3.65 c -25.9,0 -40.85,10.57 -50.37,24.46 v -85.06 c 0,-4.72 -3.99,-8.74 -8.74,-8.74 h -22.26 c -4.76,0 -8.41,4.02 -8.41,8.74 v 238.34 c 0,4.74 3.65,8.41 8.41,8.41 h 22.26 c 4.75,0 8.74,-3.67 8.74,-8.41 v -98.91 c 0,-29.19 16.06,-45.24 38.73,-45.24 22.6,0 38.65,16.05 38.65,45.24 v 98.91 c 0,4.74 3.65,8.41 8.41,8.41 h 22.25 c 4.76,0 8.75,-3.67 8.75,-8.41 v -94.54 c 0,-49.61 -21.49,-83.2 -66.42,-83.2 z m -457.45,51.82 c 0,-15.33 13.86,-20.05 29.56,-20.05 24.8,0 31.02,12.4 34.66,22.6 1.46,3.65 2.56,5.47 6.57,5.47 h 23 c 3.26,0 6.2,-2.17 6.2,-6.2 0,-1.82 -0.36,-3.66 -0.75,-4.72 -5.45,-21.56 -22.97,-48.92 -68.23,-48.92 -36.14,0 -68.98,15.67 -68.98,53.64 0,74.11 103.65,43.45 103.65,81.41 0,16.77 -12.76,23.36 -33.57,23.36 -26.3,0 -34.32,-14.99 -37.24,-24.46 -1.09,-3.65 -2.53,-5.86 -6.56,-5.86 h -22.62 c -3.66,0 -6.21,2.58 -6.59,5.86 -0.36,1.82 0,3.99 0.38,5.1 4.37,24.83 27.37,50.75 72.27,50.75 37.94,0 71.53,-14.23 71.53,-55.51 0,-72.96 -103.28,-42.68 -103.28,-82.47 z m -97.88,-48.17 h -4.76 c -23.71,0 -39.41,12.41 -48.53,27.36 v -18.6 c 0,-4.76 -3.64,-8.76 -8.4,-8.76 h -20.43 c -4.74,0 -8.41,4 -8.41,8.76 v 165.33 c 0,4.74 3.67,8.41 8.41,8.41 h 21.9 c 4.74,0 8.75,-3.67 8.75,-8.41 v -82.49 c 0,-34.31 15.71,-52.57 46.35,-52.57 h 5.12 c 4.74,0 8.75,-3.65 8.75,-8.36 v -21.91 c 0,-4.76 -4.01,-8.76 -8.75,-8.76 z"
   id="path834"
   inkscape:connector-curvature="0"
   style="fill:#fefefe;fill-rule:nonzero" />
 </g>
</svg>